# xmcd
#
# Track frame offsets: 
#        150
#        14352
#        25055
#        40249
#        53854
#        70234
#        84853
#        99863
#        109771
#        129462
#        142367
#        157387
#        167653
#
# Disc length: 2461 seconds
#
# Revision: 0
# Processed by: cddbd v1.5.2PL0 Copyright (c) Steve Scherf et al.
# Submitted via: ExactAudioCopy v0.95b4
#
DISCID=ac099b0d
DTITLE=HGH - All the men in dresses
DYEAR=2007
DGENRE=Country
TTITLE0=It's mine
TTITLE1=Another letter
TTITLE2=Everyone is an infidel
TTITLE3=Stupid song
TTITLE4=The common cold
TTITLE5=Driftage and deviation
TTITLE6=Market crash
TTITLE7=Afghanistan
TTITLE8=Father
TTITLE9=Brother
TTITLE10=All the men in dresses
TTITLE11=Gangrene blue
TTITLE12=Jumping to conclusions
EXTD=
EXTT0=
EXTT1=
EXTT2=
EXTT3=
EXTT4=
EXTT5=
EXTT6=
EXTT7=
EXTT8=
EXTT9=
EXTT10=
EXTT11=
EXTT12=
PLAYORDER=
